<svg xmlns="http://www.w3.org/2000/svg" viewBox="0 0 640 400"><rect width="640" height="400" fill="#e0ebeb"/><circle cx="524" cy="88" r="39" fill="#ffcf75" opacity=".8"/><path d="M0 280Q170 230 310 274T640 254V400H0Z" fill="#fff" opacity=".3"/><ellipse cx="322" cy="310" rx="215" ry="17" fill="#162728" opacity=".12"/><path d="m127 243 61-73q12-15 37-15h159q24 0 45 23l56 54 40 14q14 5 14 23v25H102v-32q0-14 25-19Z" fill="#71929c"/><path d="m198 231 45-58h67v59zm126 1v-59h54q15 0 29 15l42 44Z" fill="#d8e6e5"/><path d="M318 242v53M188 240v43M458 240v47" stroke="#162728" stroke-opacity=".25" stroke-width="3"/><rect x="349" y="249" width="22" height="5" rx="2" fill="#e1e5de"/><rect x="108" y="253" width="37" height="15" rx="5" fill="#fff3cc"/><rect x="509" y="252" width="25" height="15" rx="4" fill="#e1ac92"/><g fill="#233839"><circle cx="185" cy="294" r="40"/><circle cx="457" cy="294" r="40"/></g><g fill="#c1cbca"><circle cx="185" cy="294" r="23"/><circle cx="457" cy="294" r="23"/></g><g fill="#6b7f7b"><circle cx="185" cy="294" r="11"/><circle cx="457" cy="294" r="11"/></g><text x="30" y="365" fill="#526668" font-family="sans-serif" font-size="14" letter-spacing="2">ILLUSTRATION · VÉHICULE FICTIF</text></svg>